<svg id="svg" version="1.1" xmlns="http://www.w3.org/2000/svg" xmlns:xlink="http://www.w3.org/1999/xlink" width="400" height="251.65745856353593" viewBox="0, 0, 400,251.65745856353593"><g id="svgg"><path id="path0" d="M0.000 125.865 L 0.000 251.731 200.000 251.731 L 400.000 251.731 400.000 125.865 L 400.000 0.000 200.000 0.000 L 0.000 0.000 0.000 125.865 M109.125 94.678 C 114.503 96.063,116.686 105.081,113.037 110.832 C 111.666 112.993,110.487 112.709,111.534 110.471 C 114.549 104.026,108.170 96.910,103.485 101.491 C 101.529 103.403,100.808 108.178,102.105 110.636 C 103.102 112.525,102.073 112.919,100.745 111.156 C 97.102 106.318,98.576 97.461,103.414 95.115 C 105.368 94.168,106.739 94.063,109.125 94.678 M320.705 126.746 L 320.705 159.346 315.041 159.346 L 309.377 159.346 309.375 148.206 C 309.374 142.080,309.299 127.596,309.209 116.021 C 309.118 104.445,309.115 94.788,309.203 94.561 C 309.343 94.194,310.006 94.147,315.033 94.147 L 320.705 94.147 320.705 126.746 M183.386 94.978 C 194.623 97.670,200.070 103.564,200.776 113.794 C 201.403 122.864,196.736 130.226,188.179 133.665 C 186.719 134.251,185.525 134.819,185.525 134.925 C 185.525 135.032,187.469 137.823,189.844 141.128 C 192.219 144.433,195.674 149.251,197.521 151.835 C 199.368 154.420,200.967 156.572,201.073 156.618 C 201.337 156.733,202.895 158.892,202.895 159.143 C 202.895 159.255,199.858 159.346,196.146 159.346 L 189.397 159.346 185.398 153.619 C 183.199 150.469,180.714 146.918,179.876 145.728 C 179.037 144.537,177.275 142.021,175.960 140.136 L 173.568 136.709 166.331 136.699 L 159.094 136.690 159.094 148.022 L 159.094 159.355 153.493 159.287 L 147.892 159.220 147.827 142.935 L 147.762 126.651 163.560 126.555 C 180.654 126.451,180.170 126.489,183.364 125.027 C 190.133 121.928,191.409 111.771,185.568 107.482 C 182.030 104.885,180.646 104.720,162.348 104.720 L 147.766 104.720 147.766 99.727 C 147.766 96.981,147.847 94.654,147.945 94.555 C 148.363 94.137,181.528 94.533,183.386 94.978 M240.654 99.531 L 240.654 104.664 239.770 104.830 C 238.126 105.138,233.561 107.630,231.924 109.112 C 219.089 120.734,223.280 143.626,239.144 148.539 L 240.529 148.967 240.597 154.031 L 240.665 159.094 240.047 159.094 C 237.031 159.094,230.979 156.786,226.943 154.095 C 208.773 141.986,208.185 113.569,225.834 100.437 C 229.720 97.546,236.579 94.680,240.214 94.429 C 240.620 94.401,240.654 94.800,240.654 99.531 M252.980 94.900 C 280.260 100.977,286.806 138.578,263.318 154.277 C 259.891 156.568,253.467 159.094,251.068 159.094 L 250.210 159.094 250.278 154.048 L 250.346 149.002 251.985 148.429 C 271.100 141.752,271.141 112.393,252.045 105.336 L 250.220 104.662 250.220 99.530 C 250.220 96.241,250.312 94.399,250.475 94.399 C 250.615 94.399,251.742 94.625,252.980 94.900 M94.285 107.052 C 94.352 107.227,94.042 108.331,93.596 109.506 C 88.608 122.637,103.219 134.252,114.789 126.354 C 120.410 122.517,122.496 116.216,120.202 110.006 C 118.654 105.816,120.036 105.640,122.197 109.753 C 128.768 122.258,120.012 136.360,105.979 135.874 C 93.799 135.452,85.888 123.015,90.564 111.643 C 91.870 108.465,93.877 105.989,94.285 107.052 M92.462 139.940 C 94.610 140.781,94.386 141.327,91.879 141.361 C 87.576 141.419,84.581 144.218,84.581 148.182 C 84.581 151.090,86.445 152.802,89.607 152.799 C 92.358 152.797,91.878 153.002,109.125 144.451 C 121.127 138.501,124.890 137.796,129.482 140.637 C 139.112 146.594,132.222 161.969,121.586 158.258 C 119.121 157.398,119.232 156.708,121.838 156.687 C 126.130 156.652,128.996 153.990,129.007 150.031 C 129.016 146.713,127.476 145.249,123.975 145.249 C 121.537 145.249,122.033 145.041,108.496 151.718 C 94.378 158.682,94.466 158.647,90.623 158.786 C 84.543 159.006,80.750 156.286,79.796 151.023 C 78.373 143.176,85.285 137.127,92.462 139.940 " stroke="none" fill="#1f1f1f" fill-rule="evenodd"></path><path id="path1" d="M105.601 94.374 C 99.243 95.440,96.375 105.353,100.745 111.156 C 102.073 112.919,103.102 112.525,102.105 110.636 C 100.808 108.178,101.529 103.403,103.485 101.491 C 108.170 96.910,114.549 104.026,111.534 110.471 C 110.487 112.709,111.666 112.993,113.037 110.832 C 117.721 103.450,113.056 93.125,105.601 94.374 M309.203 94.561 C 309.115 94.788,309.118 104.445,309.209 116.021 C 309.299 127.596,309.374 142.080,309.375 148.206 L 309.377 159.346 315.041 159.346 L 320.705 159.346 320.705 126.746 L 320.705 94.147 315.033 94.147 C 310.006 94.147,309.343 94.194,309.203 94.561 M147.945 94.555 C 147.847 94.654,147.766 96.981,147.766 99.727 L 147.766 104.720 162.348 104.720 C 180.646 104.720,182.030 104.885,185.568 107.482 C 191.409 111.771,190.133 121.928,183.364 125.027 C 180.170 126.489,180.654 126.451,163.560 126.555 L 147.762 126.651 147.827 142.935 L 147.892 159.220 153.493 159.287 L 159.094 159.355 159.094 148.022 L 159.094 136.690 166.331 136.699 L 173.568 136.709 175.960 140.136 C 177.275 142.021,179.037 144.537,179.876 145.728 C 180.714 146.918,183.199 150.469,185.398 153.619 L 189.397 159.346 196.146 159.346 C 199.858 159.346,202.895 159.255,202.895 159.143 C 202.895 158.892,201.337 156.733,201.073 156.618 C 200.967 156.572,199.368 154.420,197.521 151.835 C 195.674 149.251,192.219 144.433,189.844 141.128 C 187.469 137.823,185.525 135.032,185.525 134.925 C 185.525 134.819,186.719 134.251,188.179 133.665 C 196.736 130.226,201.403 122.864,200.776 113.794 C 200.070 103.564,194.623 97.670,183.386 94.978 C 181.528 94.533,148.363 94.137,147.945 94.555 M237.816 94.904 C 215.685 99.933,205.723 126.559,218.675 146.067 C 223.014 152.602,233.665 159.094,240.047 159.094 L 240.665 159.094 240.597 154.031 L 240.529 148.967 239.144 148.539 C 223.280 143.626,219.089 120.734,231.924 109.112 C 233.561 107.630,238.126 105.138,239.770 104.830 L 240.654 104.664 240.654 99.531 C 240.654 94.800,240.620 94.401,240.214 94.429 C 239.972 94.446,238.893 94.660,237.816 94.904 M250.220 99.530 L 250.220 104.662 252.045 105.336 C 271.141 112.393,271.100 141.752,251.985 148.429 L 250.346 149.002 250.278 154.048 L 250.210 159.094 251.068 159.094 C 253.467 159.094,259.891 156.568,263.318 154.277 C 286.806 138.578,280.260 100.977,252.980 94.900 C 251.742 94.625,250.615 94.399,250.475 94.399 C 250.312 94.399,250.220 96.241,250.220 99.530 M92.283 108.433 C 84.647 120.244,92.210 135.397,105.979 135.874 C 120.012 136.360,128.768 122.258,122.197 109.753 C 120.036 105.640,118.654 105.816,120.202 110.006 C 124.934 122.815,110.109 134.147,98.799 126.365 C 93.214 122.523,91.169 115.896,93.596 109.506 C 94.846 106.216,94.107 105.612,92.283 108.433 M85.167 139.930 C 79.452 142.680,77.739 151.164,81.982 155.701 C 84.254 158.130,86.508 158.935,90.623 158.786 C 94.466 158.647,94.378 158.682,108.496 151.718 C 122.033 145.041,121.537 145.249,123.975 145.249 C 127.476 145.249,129.016 146.713,129.007 150.031 C 128.996 153.990,126.130 156.652,121.838 156.687 C 119.232 156.708,119.121 157.398,121.586 158.258 C 132.222 161.969,139.112 146.594,129.482 140.637 C 124.890 137.796,121.127 138.501,109.125 144.451 C 91.878 153.002,92.358 152.797,89.607 152.799 C 86.445 152.802,84.581 151.090,84.581 148.182 C 84.581 144.218,87.576 141.419,91.879 141.361 C 95.848 141.307,93.176 139.461,88.861 139.275 C 86.904 139.190,86.589 139.246,85.167 139.930 " stroke="none" fill="#e6534c" fill-rule="evenodd"></path></g></svg>