<svg width="501" height="172" viewBox="0 0 501 172" fill="none" xmlns="http://www.w3.org/2000/svg">
<g filter="url(#filter0_d_0_1)">
<path fill-rule="evenodd" clip-rule="evenodd" d="M4 81.9997V164H250.5H497V81.9997V0H250.5H4V81.9997Z" fill="#1F1F1F"/>
<path d="M250.5 163.5H4.5V81.9997V0.5H250.5H496.5V81.9997V163.5H250.5Z" stroke="black"/>
</g>
<path fill-rule="evenodd" clip-rule="evenodd" d="M77.5287 23.4143C65.8985 25.3596 60.6523 43.4502 68.646 54.0402C71.0752 57.2576 72.9575 56.5386 71.1337 53.0913C68.7612 48.6056 70.0801 39.8915 73.658 36.4023C82.2279 28.0423 93.8965 41.0285 88.3814 52.7901C86.4662 56.8743 88.6229 57.3926 91.1307 53.4489C99.6987 39.9773 91.1655 21.1349 77.5287 23.4143ZM449.96 23.7555C449.799 24.1698 449.805 41.7931 449.971 62.9185C450.136 84.0421 450.273 110.474 450.275 121.654L450.279 141.984H460.639H471V82.4909V23H460.625C451.429 23 450.216 23.0858 449.96 23.7555ZM154.985 23.7446C154.806 23.9252 154.658 28.1718 154.658 33.1831V42.295H181.331C214.802 42.295 217.334 42.5961 223.805 47.3354C234.49 55.1626 232.156 73.6984 219.774 79.3538C213.931 82.0219 214.817 81.9525 183.548 82.1423L154.65 82.3175L154.769 112.035L154.888 141.754L165.133 141.876L175.379 142V121.318V100.638L188.617 100.654L201.855 100.673L206.23 106.927C208.636 110.367 211.859 114.958 213.394 117.132C214.926 119.303 219.472 125.784 223.494 131.532L230.81 141.984H243.155C249.945 141.984 255.5 141.818 255.5 141.613C255.5 141.155 252.65 137.215 252.167 137.005C251.974 136.921 249.049 132.994 245.67 128.277C242.292 123.561 235.972 114.768 231.627 108.737C227.283 102.706 223.727 97.6123 223.727 97.417C223.727 97.2235 225.911 96.187 228.582 95.1176C244.234 88.8416 252.771 75.4065 251.624 58.8544C250.333 40.1854 240.369 29.4292 219.814 24.5165C216.415 23.7044 155.75 22.9817 154.985 23.7446ZM319.378 24.3815C278.896 33.559 260.673 82.1496 284.365 117.75C292.302 129.676 311.785 141.524 323.459 141.524H324.59L324.465 132.284L324.341 123.043L321.807 122.262C292.789 113.296 285.123 71.5194 308.601 50.3101C311.595 47.6055 319.945 43.0578 322.953 42.4957L324.57 42.1928V32.8254C324.57 24.1917 324.507 23.4635 323.765 23.5146C323.322 23.5456 321.348 23.9362 319.378 24.3815ZM342.068 32.8236V42.1891L345.406 43.4191C380.337 56.2977 380.262 109.876 345.296 122.061L342.298 123.107L342.174 132.315L342.05 141.524H343.619C348.007 141.524 359.758 136.914 366.027 132.733C408.991 104.083 397.017 35.4643 347.116 24.3742C344.852 23.8723 342.79 23.4599 342.534 23.4599C342.236 23.4599 342.068 26.8214 342.068 32.8236ZM53.1672 49.0709C39.1993 70.6252 53.0336 98.2783 78.2201 99.1488C103.889 100.036 119.906 74.3006 107.886 51.4798C103.933 43.9739 101.405 44.2951 104.237 51.9415C112.893 75.3171 85.7748 95.9972 65.0864 81.7956C54.8702 74.7842 51.1294 62.6904 55.5689 51.0291C57.8555 45.0251 56.5037 43.9228 53.1672 49.0709ZM40.1505 106.551C29.6965 111.569 26.5631 127.052 34.3244 135.332C38.4804 139.764 42.6035 141.234 50.1307 140.962C57.1604 140.708 56.9994 140.772 82.8242 128.063C107.586 115.878 106.679 116.258 111.139 116.258C117.543 116.258 120.36 118.929 120.343 124.984C120.323 132.209 115.081 137.067 107.23 137.131C102.463 137.169 102.26 138.429 106.769 139.998C126.224 146.77 138.827 118.712 121.212 107.841C112.812 102.656 105.929 103.943 83.9748 114.801C52.4264 130.406 53.3044 130.032 48.2722 130.036C42.4882 130.041 39.0786 126.917 39.0786 121.61C39.0786 114.376 44.5571 109.268 52.4282 109.162C59.6883 109.064 54.8007 105.695 46.9076 105.355C43.3278 105.2 42.7516 105.302 40.1505 106.551Z" fill="#E6534C"/>
<defs>
<filter id="filter0_d_0_1" x="0" y="0" width="501" height="172" filterUnits="userSpaceOnUse" color-interpolation-filters="sRGB">
<feFlood flood-opacity="0" result="BackgroundImageFix"/>
<feColorMatrix in="SourceAlpha" type="matrix" values="0 0 0 0 0 0 0 0 0 0 0 0 0 0 0 0 0 0 127 0" result="hardAlpha"/>
<feOffset dy="4"/>
<feGaussianBlur stdDeviation="2"/>
<feComposite in2="hardAlpha" operator="out"/>
<feColorMatrix type="matrix" values="0 0 0 0 0 0 0 0 0 0 0 0 0 0 0 0 0 0 0.25 0"/>
<feBlend mode="normal" in2="BackgroundImageFix" result="effect1_dropShadow_0_1"/>
<feBlend mode="normal" in="SourceGraphic" in2="effect1_dropShadow_0_1" result="shape"/>
</filter>
</defs>
</svg>
